<?xml version="1.0" encoding="UTF-8" standalone="no"?>
<!DOCTYPE svg PUBLIC "-//W3C//DTD SVG 1.1//EN"
 "http://www.w3.org/Graphics/SVG/1.1/DTD/svg11.dtd">
<!-- Generated by graphviz version 2.47.0 (20210316.0004)
 -->
<!-- Title: dbml Pages: 1 -->
<svg width="2587pt" height="886pt"
 viewBox="0.00 0.00 2586.63 885.92" xmlns="http://www.w3.org/2000/svg" xmlns:xlink="http://www.w3.org/1999/xlink">
<g id="graph0" class="graph" transform="scale(1 1) rotate(0) translate(4 881.92)">
<title>dbml</title>
<!-- usuarios -->
<g id="usuarios" class="node">
<title>usuarios</title>
<ellipse fill="none" stroke="black" stroke-width="0" cx="304.06" cy="-567.11" rx="304.11" ry="214.92"/>
<polygon fill="#1d71b8" stroke="transparent" points="91.06,-657.11 91.06,-717.11 517.06,-717.11 517.06,-657.11 91.06,-657.11"/>
<polygon fill="none" stroke="#29235c" points="91.06,-657.11 91.06,-717.11 517.06,-717.11 517.06,-657.11 91.06,-657.11"/>
<text text-anchor="start" x="181.35" y="-678.31" font-family="Helvetica,sans-Serif" font-weight="bold" font-size="32.00" fill="#ffffff"> &#160;&#160;&#160;&#160;&#160;&#160;usuarios &#160;&#160;&#160;&#160;&#160;&#160;</text>
<polygon fill="#e7e2dd" stroke="transparent" points="91.06,-597.11 91.06,-657.11 517.06,-657.11 517.06,-597.11 91.06,-597.11"/>
<polygon fill="none" stroke="#29235c" points="91.06,-597.11 91.06,-657.11 517.06,-657.11 517.06,-597.11 91.06,-597.11"/>
<text text-anchor="start" x="102.06" y="-618.31" font-family="Helvetica,sans-Serif" font-weight="bold" font-size="32.00" fill="#29235c">id</text>
<text text-anchor="start" x="126.95" y="-618.31" font-family="Helvetica,sans-Serif" font-size="32.00" fill="#29235c"> &#160;&#160;&#160;</text>
<text text-anchor="start" x="408.25" y="-618.31" font-family="Helvetica,sans-Serif" font-style="italic" font-size="32.00" fill="#29235c">integer</text>
<polygon fill="#e7e2dd" stroke="transparent" points="91.06,-537.11 91.06,-597.11 517.06,-597.11 517.06,-537.11 91.06,-537.11"/>
<polygon fill="none" stroke="#29235c" points="91.06,-537.11 91.06,-597.11 517.06,-597.11 517.06,-537.11 91.06,-537.11"/>
<text text-anchor="start" x="102.06" y="-557.31" font-family="Helvetica,sans-Serif" font-size="32.00" fill="#29235c">email &#160;&#160;&#160;</text>
<text text-anchor="start" x="360.29" y="-558.31" font-family="Helvetica,sans-Serif" font-style="italic" font-size="32.00" fill="#29235c">varchar</text>
<text text-anchor="start" x="466.96" y="-558.31" font-family="Helvetica,sans-Serif" font-size="32.00" fill="#29235c"> </text>
<text text-anchor="start" x="475.86" y="-558.31" font-family="Helvetica,sans-Serif" font-weight="bold" font-size="32.00" fill="#29235c">(!)</text>
<polygon fill="#e7e2dd" stroke="transparent" points="91.06,-477.11 91.06,-537.11 517.06,-537.11 517.06,-477.11 91.06,-477.11"/>
<polygon fill="none" stroke="#29235c" points="91.06,-477.11 91.06,-537.11 517.06,-537.11 517.06,-477.11 91.06,-477.11"/>
<text text-anchor="start" x="101.74" y="-497.31" font-family="Helvetica,sans-Serif" font-size="32.00" fill="#29235c">password_hash &#160;&#160;&#160;</text>
<text text-anchor="start" x="360.67" y="-498.31" font-family="Helvetica,sans-Serif" font-style="italic" font-size="32.00" fill="#29235c">varchar</text>
<text text-anchor="start" x="467.35" y="-498.31" font-family="Helvetica,sans-Serif" font-size="32.00" fill="#29235c"> </text>
<text text-anchor="start" x="476.24" y="-498.31" font-family="Helvetica,sans-Serif" font-weight="bold" font-size="32.00" fill="#29235c">(!)</text>
<polygon fill="#e7e2dd" stroke="transparent" points="91.06,-417.11 91.06,-477.11 517.06,-477.11 517.06,-417.11 91.06,-417.11"/>
<polygon fill="none" stroke="#29235c" points="91.06,-417.11 91.06,-477.11 517.06,-477.11 517.06,-417.11 91.06,-417.11"/>
<text text-anchor="start" x="102.06" y="-437.31" font-family="Helvetica,sans-Serif" font-size="32.00" fill="#29235c">fecha_creacion &#160;&#160;&#160;</text>
<text text-anchor="start" x="358.5" y="-438.31" font-family="Helvetica,sans-Serif" font-style="italic" font-size="32.00" fill="#29235c">timestamp</text>
<polygon fill="none" stroke="#29235c" stroke-width="2" points="90.06,-416.11 90.06,-718.11 518.06,-718.11 518.06,-416.11 90.06,-416.11"/>
</g>
<!-- carpetas -->
<g id="carpetas" class="node">
<title>carpetas</title>
<ellipse fill="none" stroke="black" stroke-width="0" cx="888.06" cy="-567.11" rx="243.9" ry="214.92"/>
<polygon fill="#1d71b8" stroke="transparent" points="718.06,-657.11 718.06,-717.11 1059.06,-717.11 1059.06,-657.11 718.06,-657.11"/>
<polygon fill="none" stroke="#29235c" points="718.06,-657.11 718.06,-717.11 1059.06,-717.11 1059.06,-657.11 718.06,-657.11"/>
<text text-anchor="start" x="764.96" y="-678.31" font-family="Helvetica,sans-Serif" font-weight="bold" font-size="32.00" fill="#ffffff"> &#160;&#160;&#160;&#160;&#160;&#160;carpetas &#160;&#160;&#160;&#160;&#160;&#160;</text>
<polygon fill="#e7e2dd" stroke="transparent" points="718.06,-597.11 718.06,-657.11 1059.06,-657.11 1059.06,-597.11 718.06,-597.11"/>
<polygon fill="none" stroke="#29235c" points="718.06,-597.11 718.06,-657.11 1059.06,-657.11 1059.06,-597.11 718.06,-597.11"/>
<text text-anchor="start" x="729.06" y="-618.31" font-family="Helvetica,sans-Serif" font-weight="bold" font-size="32.00" fill="#29235c">id</text>
<text text-anchor="start" x="753.95" y="-618.31" font-family="Helvetica,sans-Serif" font-size="32.00" fill="#29235c"> &#160;&#160;&#160;</text>
<text text-anchor="start" x="950.26" y="-618.31" font-family="Helvetica,sans-Serif" font-style="italic" font-size="32.00" fill="#29235c">integer</text>
<polygon fill="#e7e2dd" stroke="transparent" points="718.06,-537.11 718.06,-597.11 1059.06,-597.11 1059.06,-537.11 718.06,-537.11"/>
<polygon fill="none" stroke="#29235c" points="718.06,-537.11 718.06,-597.11 1059.06,-597.11 1059.06,-537.11 718.06,-537.11"/>
<text text-anchor="start" x="729.06" y="-557.31" font-family="Helvetica,sans-Serif" font-size="32.00" fill="#29235c">nombre &#160;&#160;&#160;</text>
<text text-anchor="start" x="902.3" y="-558.31" font-family="Helvetica,sans-Serif" font-style="italic" font-size="32.00" fill="#29235c">varchar</text>
<text text-anchor="start" x="1008.97" y="-558.31" font-family="Helvetica,sans-Serif" font-size="32.00" fill="#29235c"> </text>
<text text-anchor="start" x="1017.87" y="-558.31" font-family="Helvetica,sans-Serif" font-weight="bold" font-size="32.00" fill="#29235c">(!)</text>
<polygon fill="#e7e2dd" stroke="transparent" points="718.06,-477.11 718.06,-537.11 1059.06,-537.11 1059.06,-477.11 718.06,-477.11"/>
<polygon fill="none" stroke="#29235c" points="718.06,-477.11 718.06,-537.11 1059.06,-537.11 1059.06,-477.11 718.06,-477.11"/>
<text text-anchor="start" x="728.98" y="-497.31" font-family="Helvetica,sans-Serif" font-size="32.00" fill="#29235c">usuario_id &#160;&#160;&#160;</text>
<text text-anchor="start" x="911.62" y="-498.31" font-family="Helvetica,sans-Serif" font-style="italic" font-size="32.00" fill="#29235c">integer</text>
<text text-anchor="start" x="1009.42" y="-498.31" font-family="Helvetica,sans-Serif" font-size="32.00" fill="#29235c"> </text>
<text text-anchor="start" x="1018.31" y="-498.31" font-family="Helvetica,sans-Serif" font-weight="bold" font-size="32.00" fill="#29235c">(!)</text>
<polygon fill="#e7e2dd" stroke="transparent" points="718.06,-417.11 718.06,-477.11 1059.06,-477.11 1059.06,-417.11 718.06,-417.11"/>
<polygon fill="none" stroke="#29235c" points="718.06,-417.11 718.06,-477.11 1059.06,-477.11 1059.06,-417.11 718.06,-417.11"/>
<text text-anchor="start" x="729.06" y="-437.31" font-family="Helvetica,sans-Serif" font-size="32.00" fill="#29235c">parent_id &#160;&#160;&#160;</text>
<text text-anchor="start" x="950.26" y="-438.31" font-family="Helvetica,sans-Serif" font-style="italic" font-size="32.00" fill="#29235c">integer</text>
<polygon fill="none" stroke="#29235c" stroke-width="2" points="716.56,-416.11 716.56,-718.11 1059.56,-718.11 1059.56,-416.11 716.56,-416.11"/>
</g>
<!-- usuarios&#45;&gt;carpetas -->
<!-- usuarios&#45;&gt;carpetas -->
<g id="edge2" class="edge">
<title>usuarios:e&#45;&gt;carpetas:w</title>
<path fill="none" stroke="#29235c" stroke-width="3" d="M518.06,-627.11C617.81,-627.11 614.17,-515.17 706.85,-507.52"/>
<polygon fill="#29235c" stroke="#29235c" stroke-width="3" points="707.21,-511.01 717.06,-507.11 706.93,-504.01 707.21,-511.01"/>
<text text-anchor="middle" x="723.29" y="-516.71" font-family="Helvetica,sans-Serif" font-size="32.00" fill="#29235c">*</text>
<text text-anchor="middle" x="509.16" y="-636.71" font-family="Helvetica,sans-Serif" font-size="32.00" fill="#29235c">1</text>
</g>
<!-- notas -->
<g id="notas" class="node">
<title>notas</title>
<ellipse fill="none" stroke="black" stroke-width="0" cx="1508.84" cy="-578.11" rx="340.65" ry="299.63"/>
<polygon fill="#1d71b8" stroke="transparent" points="1269.84,-728.11 1269.84,-788.11 1747.84,-788.11 1747.84,-728.11 1269.84,-728.11"/>
<polygon fill="none" stroke="#29235c" points="1269.84,-728.11 1269.84,-788.11 1747.84,-788.11 1747.84,-728.11 1269.84,-728.11"/>
<text text-anchor="start" x="1407.46" y="-749.31" font-family="Helvetica,sans-Serif" font-weight="bold" font-size="32.00" fill="#ffffff"> &#160;&#160;&#160;&#160;&#160;&#160;notas &#160;&#160;&#160;&#160;&#160;&#160;</text>
<polygon fill="#e7e2dd" stroke="transparent" points="1269.84,-668.11 1269.84,-728.11 1747.84,-728.11 1747.84,-668.11 1269.84,-668.11"/>
<polygon fill="none" stroke="#29235c" points="1269.84,-668.11 1269.84,-728.11 1747.84,-728.11 1747.84,-668.11 1269.84,-668.11"/>
<text text-anchor="start" x="1280.84" y="-689.31" font-family="Helvetica,sans-Serif" font-weight="bold" font-size="32.00" fill="#29235c">id</text>
<text text-anchor="start" x="1305.73" y="-689.31" font-family="Helvetica,sans-Serif" font-size="32.00" fill="#29235c"> &#160;&#160;&#160;</text>
<text text-anchor="start" x="1639.04" y="-689.31" font-family="Helvetica,sans-Serif" font-style="italic" font-size="32.00" fill="#29235c">integer</text>
<polygon fill="#e7e2dd" stroke="transparent" points="1269.84,-608.11 1269.84,-668.11 1747.84,-668.11 1747.84,-608.11 1269.84,-608.11"/>
<polygon fill="none" stroke="#29235c" points="1269.84,-608.11 1269.84,-668.11 1747.84,-668.11 1747.84,-608.11 1269.84,-608.11"/>
<text text-anchor="start" x="1280.84" y="-628.31" font-family="Helvetica,sans-Serif" font-size="32.00" fill="#29235c">titulo &#160;&#160;&#160;</text>
<text text-anchor="start" x="1591.08" y="-629.31" font-family="Helvetica,sans-Serif" font-style="italic" font-size="32.00" fill="#29235c">varchar</text>
<text text-anchor="start" x="1697.75" y="-629.31" font-family="Helvetica,sans-Serif" font-size="32.00" fill="#29235c"> </text>
<text text-anchor="start" x="1706.64" y="-629.31" font-family="Helvetica,sans-Serif" font-weight="bold" font-size="32.00" fill="#29235c">(!)</text>
<polygon fill="#e7e2dd" stroke="transparent" points="1269.84,-548.11 1269.84,-608.11 1747.84,-608.11 1747.84,-548.11 1269.84,-548.11"/>
<polygon fill="none" stroke="#29235c" points="1269.84,-548.11 1269.84,-608.11 1747.84,-608.11 1747.84,-548.11 1269.84,-548.11"/>
<text text-anchor="start" x="1280.84" y="-568.31" font-family="Helvetica,sans-Serif" font-size="32.00" fill="#29235c">contenido &#160;&#160;&#160;</text>
<text text-anchor="start" x="1685.27" y="-569.31" font-family="Helvetica,sans-Serif" font-style="italic" font-size="32.00" fill="#29235c">text</text>
<polygon fill="#e7e2dd" stroke="transparent" points="1269.84,-488.11 1269.84,-548.11 1747.84,-548.11 1747.84,-488.11 1269.84,-488.11"/>
<polygon fill="none" stroke="#29235c" points="1269.84,-488.11 1269.84,-548.11 1747.84,-548.11 1747.84,-488.11 1269.84,-488.11"/>
<text text-anchor="start" x="1280.84" y="-508.31" font-family="Helvetica,sans-Serif" font-size="32.00" fill="#29235c">usuario_id &#160;&#160;&#160;</text>
<text text-anchor="start" x="1599.95" y="-509.31" font-family="Helvetica,sans-Serif" font-style="italic" font-size="32.00" fill="#29235c">integer</text>
<text text-anchor="start" x="1697.75" y="-509.31" font-family="Helvetica,sans-Serif" font-size="32.00" fill="#29235c"> </text>
<text text-anchor="start" x="1706.64" y="-509.31" font-family="Helvetica,sans-Serif" font-weight="bold" font-size="32.00" fill="#29235c">(!)</text>
<polygon fill="#e7e2dd" stroke="transparent" points="1269.84,-428.11 1269.84,-488.11 1747.84,-488.11 1747.84,-428.11 1269.84,-428.11"/>
<polygon fill="none" stroke="#29235c" points="1269.84,-428.11 1269.84,-488.11 1747.84,-488.11 1747.84,-428.11 1269.84,-428.11"/>
<text text-anchor="start" x="1280.84" y="-448.31" font-family="Helvetica,sans-Serif" font-size="32.00" fill="#29235c">carpeta_id &#160;&#160;&#160;</text>
<text text-anchor="start" x="1639.04" y="-449.31" font-family="Helvetica,sans-Serif" font-style="italic" font-size="32.00" fill="#29235c">integer</text>
<polygon fill="#e7e2dd" stroke="transparent" points="1269.84,-368.11 1269.84,-428.11 1747.84,-428.11 1747.84,-368.11 1269.84,-368.11"/>
<polygon fill="none" stroke="#29235c" points="1269.84,-368.11 1269.84,-428.11 1747.84,-428.11 1747.84,-368.11 1269.84,-368.11"/>
<text text-anchor="start" x="1280.64" y="-388.31" font-family="Helvetica,sans-Serif" font-size="32.00" fill="#29235c">fecha_modificacion &#160;&#160;&#160;</text>
<text text-anchor="start" x="1589.56" y="-389.31" font-family="Helvetica,sans-Serif" font-style="italic" font-size="32.00" fill="#29235c">timestamp</text>
<polygon fill="none" stroke="#29235c" stroke-width="2" points="1268.84,-367.11 1268.84,-789.11 1748.84,-789.11 1748.84,-367.11 1268.84,-367.11"/>
</g>
<!-- usuarios&#45;&gt;notas -->
<!-- usuarios&#45;&gt;notas -->
<g id="edge4" class="edge">
<title>usuarios:e&#45;&gt;notas:w</title>
<path fill="none" stroke="#29235c" stroke-width="3" d="M518.06,-627.11C656.15,-627.11 528.34,-418.39 644.11,-343.11 825.91,-224.9 937.1,-248.08 1132.02,-343.11 1217.55,-384.81 1173.59,-508.7 1258.71,-517.6"/>
<polygon fill="#29235c" stroke="#29235c" stroke-width="3" points="1258.68,-521.1 1268.84,-518.11 1259.03,-514.11 1258.68,-521.1"/>
<text text-anchor="middle" x="1275.06" y="-527.71" font-family="Helvetica,sans-Serif" font-size="32.00" fill="#29235c">*</text>
<text text-anchor="middle" x="526.95" y="-636.71" font-family="Helvetica,sans-Serif" font-size="32.00" fill="#29235c">1</text>
</g>
<!-- carpetas&#45;&gt;carpetas -->
<!-- carpetas&#45;&gt;carpetas -->
<g id="edge6" class="edge">
<title>carpetas:e&#45;&gt;carpetas:w</title>
<path fill="none" stroke="#29235c" stroke-width="3" d="M1059.06,-627.11C1205.06,-704.76 1205.06,-800.07 888.56,-800.07 578.55,-800.07 572.2,-535.94 709.27,-452.13"/>
<polygon fill="#29235c" stroke="#29235c" stroke-width="3" points="711.12,-455.11 718.06,-447.11 707.64,-449.03 711.12,-455.11"/>
<text text-anchor="middle" x="724.29" y="-447.11" font-family="Helvetica,sans-Serif" font-size="32.00" fill="#29235c">*</text>
<text text-anchor="middle" x="1050.17" y="-636.71" font-family="Helvetica,sans-Serif" font-size="32.00" fill="#29235c">1</text>
</g>
<!-- carpetas&#45;&gt;notas -->
<!-- carpetas&#45;&gt;notas -->
<g id="edge8" class="edge">
<title>carpetas:e&#45;&gt;notas:w</title>
<path fill="none" stroke="#29235c" stroke-width="3" d="M1060.06,-627.11C1175.95,-627.11 1151.09,-467.86 1258.73,-458.53"/>
<polygon fill="#29235c" stroke="#29235c" stroke-width="3" points="1259,-462.03 1268.84,-458.11 1258.7,-455.03 1259,-462.03"/>
<text text-anchor="middle" x="1275.06" y="-458.11" font-family="Helvetica,sans-Serif" font-size="32.00" fill="#29235c">*</text>
<text text-anchor="middle" x="1068.96" y="-636.71" font-family="Helvetica,sans-Serif" font-size="32.00" fill="#29235c">1</text>
</g>
<!-- enlaces_a_otro_archivo -->
<g id="enlaces_a_otro_archivo" class="node">
<title>enlaces_a_otro_archivo</title>
<ellipse fill="none" stroke="black" stroke-width="0" cx="2232.15" cy="-698.11" rx="346.46" ry="130.22"/>
<polygon fill="#1d71b8" stroke="transparent" points="1989.15,-728.11 1989.15,-788.11 2475.15,-788.11 2475.15,-728.11 1989.15,-728.11"/>
<polygon fill="none" stroke="#29235c" points="1989.15,-728.11 1989.15,-788.11 2475.15,-788.11 2475.15,-728.11 1989.15,-728.11"/>
<text text-anchor="start" x="2000.07" y="-749.31" font-family="Helvetica,sans-Serif" font-weight="bold" font-size="32.00" fill="#ffffff"> &#160;&#160;&#160;&#160;&#160;&#160;enlaces_a_otro_archivo &#160;&#160;&#160;&#160;&#160;&#160;</text>
<polygon fill="#e7e2dd" stroke="transparent" points="1989.15,-668.11 1989.15,-728.11 2475.15,-728.11 2475.15,-668.11 1989.15,-668.11"/>
<polygon fill="none" stroke="#29235c" points="1989.15,-668.11 1989.15,-728.11 2475.15,-728.11 2475.15,-668.11 1989.15,-668.11"/>
<text text-anchor="start" x="2000.15" y="-689.31" font-family="Helvetica,sans-Serif" font-weight="bold" font-size="32.00" fill="#29235c">origen_id</text>
<text text-anchor="start" x="2131.74" y="-689.31" font-family="Helvetica,sans-Serif" font-size="32.00" fill="#29235c"> &#160;&#160;&#160;</text>
<text text-anchor="start" x="2327.26" y="-689.31" font-family="Helvetica,sans-Serif" font-style="italic" font-size="32.00" fill="#29235c">integer</text>
<text text-anchor="start" x="2425.06" y="-689.31" font-family="Helvetica,sans-Serif" font-size="32.00" fill="#29235c"> </text>
<text text-anchor="start" x="2433.95" y="-689.31" font-family="Helvetica,sans-Serif" font-weight="bold" font-size="32.00" fill="#29235c">(!)</text>
<polygon fill="#e7e2dd" stroke="transparent" points="1989.15,-608.11 1989.15,-668.11 2475.15,-668.11 2475.15,-608.11 1989.15,-608.11"/>
<polygon fill="none" stroke="#29235c" points="1989.15,-608.11 1989.15,-668.11 2475.15,-668.11 2475.15,-608.11 1989.15,-608.11"/>
<text text-anchor="start" x="2000.15" y="-629.31" font-family="Helvetica,sans-Serif" font-weight="bold" font-size="32.00" fill="#29235c">destino_id</text>
<text text-anchor="start" x="2145.98" y="-629.31" font-family="Helvetica,sans-Serif" font-size="32.00" fill="#29235c"> &#160;&#160;&#160;</text>
<text text-anchor="start" x="2327.26" y="-629.31" font-family="Helvetica,sans-Serif" font-style="italic" font-size="32.00" fill="#29235c">integer</text>
<text text-anchor="start" x="2425.06" y="-629.31" font-family="Helvetica,sans-Serif" font-size="32.00" fill="#29235c"> </text>
<text text-anchor="start" x="2433.95" y="-629.31" font-family="Helvetica,sans-Serif" font-weight="bold" font-size="32.00" fill="#29235c">(!)</text>
<polygon fill="none" stroke="#29235c" stroke-width="2" points="1988.15,-607.11 1988.15,-789.11 2476.15,-789.11 2476.15,-607.11 1988.15,-607.11"/>
</g>
<!-- notas&#45;&gt;enlaces_a_otro_archivo -->
<!-- notas&#45;&gt;enlaces_a_otro_archivo -->
<g id="edge10" class="edge">
<title>notas:e&#45;&gt;enlaces_a_otro_archivo:w</title>
<path fill="none" stroke="#29235c" stroke-width="3" d="M1748.84,-698.11C1851.77,-698.11 1879.99,-698.11 1978.11,-698.11"/>
<polygon fill="#29235c" stroke="#29235c" stroke-width="3" points="1978.15,-701.61 1988.15,-698.11 1978.15,-694.61 1978.15,-701.61"/>
<text text-anchor="middle" x="1981.93" y="-707.71" font-family="Helvetica,sans-Serif" font-size="32.00" fill="#29235c">*</text>
<text text-anchor="middle" x="1757.74" y="-707.71" font-family="Helvetica,sans-Serif" font-size="32.00" fill="#29235c">1</text>
</g>
<!-- notas&#45;&gt;enlaces_a_otro_archivo -->
<!-- notas&#45;&gt;enlaces_a_otro_archivo -->
<g id="edge12" class="edge">
<title>notas:e&#45;&gt;enlaces_a_otro_archivo:w</title>
<path fill="none" stroke="#29235c" stroke-width="3" d="M1748.84,-698.11C1855.07,-698.11 1877.16,-641.8 1978.13,-638.28"/>
<polygon fill="#29235c" stroke="#29235c" stroke-width="3" points="1978.21,-641.78 1988.15,-638.11 1978.09,-634.78 1978.21,-641.78"/>
<text text-anchor="middle" x="1981.93" y="-647.71" font-family="Helvetica,sans-Serif" font-size="32.00" fill="#29235c">*</text>
<text text-anchor="middle" x="1757.74" y="-669.31" font-family="Helvetica,sans-Serif" font-size="32.00" fill="#29235c">1</text>
</g>
<!-- nota_etiqueta -->
<g id="nota_etiqueta" class="node">
<title>nota_etiqueta</title>
<ellipse fill="none" stroke="black" stroke-width="0" cx="2232.15" cy="-305.11" rx="250.13" ry="130.22"/>
<polygon fill="#1d71b8" stroke="transparent" points="2057.15,-335.11 2057.15,-395.11 2407.15,-395.11 2407.15,-335.11 2057.15,-335.11"/>
<polygon fill="none" stroke="#29235c" points="2057.15,-335.11 2057.15,-395.11 2407.15,-395.11 2407.15,-335.11 2057.15,-335.11"/>
<text text-anchor="start" x="2072.96" y="-356.31" font-family="Helvetica,sans-Serif" font-weight="bold" font-size="32.00" fill="#ffffff"> &#160;&#160;&#160;&#160;&#160;&#160;nota_etiqueta &#160;&#160;&#160;&#160;&#160;&#160;</text>
<polygon fill="#e7e2dd" stroke="transparent" points="2057.15,-275.11 2057.15,-335.11 2407.15,-335.11 2407.15,-275.11 2057.15,-275.11"/>
<polygon fill="none" stroke="#29235c" points="2057.15,-275.11 2057.15,-335.11 2407.15,-335.11 2407.15,-275.11 2057.15,-275.11"/>
<text text-anchor="start" x="2068.15" y="-296.31" font-family="Helvetica,sans-Serif" font-weight="bold" font-size="32.00" fill="#29235c">nota_id</text>
<text text-anchor="start" x="2173.09" y="-296.31" font-family="Helvetica,sans-Serif" font-size="32.00" fill="#29235c"> &#160;&#160;&#160;</text>
<text text-anchor="start" x="2259.26" y="-296.31" font-family="Helvetica,sans-Serif" font-style="italic" font-size="32.00" fill="#29235c">integer</text>
<text text-anchor="start" x="2357.06" y="-296.31" font-family="Helvetica,sans-Serif" font-size="32.00" fill="#29235c"> </text>
<text text-anchor="start" x="2365.95" y="-296.31" font-family="Helvetica,sans-Serif" font-weight="bold" font-size="32.00" fill="#29235c">(!)</text>
<polygon fill="#e7e2dd" stroke="transparent" points="2057.15,-215.11 2057.15,-275.11 2407.15,-275.11 2407.15,-215.11 2057.15,-215.11"/>
<polygon fill="none" stroke="#29235c" points="2057.15,-215.11 2057.15,-275.11 2407.15,-275.11 2407.15,-215.11 2057.15,-215.11"/>
<text text-anchor="start" x="2068.11" y="-236.31" font-family="Helvetica,sans-Serif" font-weight="bold" font-size="32.00" fill="#29235c">etiqueta_id</text>
<text text-anchor="start" x="2224.62" y="-236.31" font-family="Helvetica,sans-Serif" font-size="32.00" fill="#29235c"> &#160;&#160;&#160;</text>
<text text-anchor="start" x="2259.7" y="-236.31" font-family="Helvetica,sans-Serif" font-style="italic" font-size="32.00" fill="#29235c">integer</text>
<text text-anchor="start" x="2357.5" y="-236.31" font-family="Helvetica,sans-Serif" font-size="32.00" fill="#29235c"> </text>
<text text-anchor="start" x="2366.4" y="-236.31" font-family="Helvetica,sans-Serif" font-weight="bold" font-size="32.00" fill="#29235c">(!)</text>
<polygon fill="none" stroke="#29235c" stroke-width="2" points="2056.15,-214.11 2056.15,-396.11 2408.15,-396.11 2408.15,-214.11 2056.15,-214.11"/>
</g>
<!-- notas&#45;&gt;nota_etiqueta -->
<!-- notas&#45;&gt;nota_etiqueta -->
<g id="edge14" class="edge">
<title>notas:e&#45;&gt;nota_etiqueta:w</title>
<path fill="none" stroke="#29235c" stroke-width="3" d="M1748.84,-698.11C1856.35,-698.11 1940.08,-328.54 2046.15,-306.17"/>
<polygon fill="#29235c" stroke="#29235c" stroke-width="3" points="2046.57,-309.64 2056.15,-305.11 2045.84,-302.68 2046.57,-309.64"/>
<text text-anchor="middle" x="2049.93" y="-276.31" font-family="Helvetica,sans-Serif" font-size="32.00" fill="#29235c">*</text>
<text text-anchor="middle" x="1739.95" y="-707.71" font-family="Helvetica,sans-Serif" font-size="32.00" fill="#29235c">1</text>
</g>
<!-- etiquetas -->
<g id="etiquetas" class="node">
<title>etiquetas</title>
<ellipse fill="none" stroke="black" stroke-width="0" cx="1508.84" cy="-130.11" rx="222.98" ry="130.22"/>
<polygon fill="#1d71b8" stroke="transparent" points="1353.84,-160.11 1353.84,-220.11 1664.84,-220.11 1664.84,-160.11 1353.84,-160.11"/>
<polygon fill="none" stroke="#29235c" points="1353.84,-160.11 1353.84,-220.11 1664.84,-220.11 1664.84,-160.11 1353.84,-160.11"/>
<text text-anchor="start" x="1382.18" y="-181.31" font-family="Helvetica,sans-Serif" font-weight="bold" font-size="32.00" fill="#ffffff"> &#160;&#160;&#160;&#160;&#160;&#160;etiquetas &#160;&#160;&#160;&#160;&#160;&#160;</text>
<polygon fill="#e7e2dd" stroke="transparent" points="1353.84,-100.11 1353.84,-160.11 1664.84,-160.11 1664.84,-100.11 1353.84,-100.11"/>
<polygon fill="none" stroke="#29235c" points="1353.84,-100.11 1353.84,-160.11 1664.84,-160.11 1664.84,-100.11 1353.84,-100.11"/>
<text text-anchor="start" x="1364.84" y="-121.31" font-family="Helvetica,sans-Serif" font-weight="bold" font-size="32.00" fill="#29235c">id</text>
<text text-anchor="start" x="1389.73" y="-121.31" font-family="Helvetica,sans-Serif" font-size="32.00" fill="#29235c"> &#160;&#160;&#160;</text>
<text text-anchor="start" x="1556.04" y="-121.31" font-family="Helvetica,sans-Serif" font-style="italic" font-size="32.00" fill="#29235c">integer</text>
<polygon fill="#e7e2dd" stroke="transparent" points="1353.84,-40.11 1353.84,-100.11 1664.84,-100.11 1664.84,-40.11 1353.84,-40.11"/>
<polygon fill="none" stroke="#29235c" points="1353.84,-40.11 1353.84,-100.11 1664.84,-100.11 1664.84,-40.11 1353.84,-40.11"/>
<text text-anchor="start" x="1364.82" y="-60.31" font-family="Helvetica,sans-Serif" font-size="32.00" fill="#29235c">nombre &#160;&#160;&#160;</text>
<text text-anchor="start" x="1508.46" y="-61.31" font-family="Helvetica,sans-Serif" font-style="italic" font-size="32.00" fill="#29235c">varchar</text>
<text text-anchor="start" x="1615.13" y="-61.31" font-family="Helvetica,sans-Serif" font-size="32.00" fill="#29235c"> </text>
<text text-anchor="start" x="1624.02" y="-61.31" font-family="Helvetica,sans-Serif" font-weight="bold" font-size="32.00" fill="#29235c">(!)</text>
<polygon fill="none" stroke="#29235c" stroke-width="2" points="1352.34,-39.11 1352.34,-221.11 1665.34,-221.11 1665.34,-39.11 1352.34,-39.11"/>
</g>
<!-- etiquetas&#45;&gt;nota_etiqueta -->
<!-- etiquetas&#45;&gt;nota_etiqueta -->
<g id="edge16" class="edge">
<title>etiquetas:e&#45;&gt;nota_etiqueta:w</title>
<path fill="none" stroke="#29235c" stroke-width="3" d="M1665.84,-130.11C1843.24,-130.11 1874.16,-240.77 2045.98,-244.98"/>
<polygon fill="#29235c" stroke="#29235c" stroke-width="3" points="2046.11,-248.49 2056.15,-245.11 2046.19,-241.49 2046.11,-248.49"/>
<text text-anchor="middle" x="2049.93" y="-216.31" font-family="Helvetica,sans-Serif" font-size="32.00" fill="#29235c">*</text>
<text text-anchor="middle" x="1674.74" y="-101.31" font-family="Helvetica,sans-Serif" font-size="32.00" fill="#29235c">1</text>
</g>
</g>
</svg>
